<svg width="1440" height="1024" viewBox="0 0 1440 1024" fill="none" xmlns="http://www.w3.org/2000/svg">
  <rect width="1440" height="1024" fill="#F3F5FB"/>
  <rect x="40" y="32" width="1360" height="64" rx="16" fill="#1B365D"/>
  <text x="72" y="72" fill="white" font-family="Inter" font-size="28" font-weight="600">SmetaPro · Запуски агента</text>
  <rect x="40" y="120" width="1360" height="120" rx="24" fill="white" stroke="#D7DEED" stroke-width="2"/>
  <text x="72" y="172" fill="#2E3A59" font-family="Inter" font-size="20" font-weight="600">Фильтры и метрики</text>
  <rect x="72" y="188" width="200" height="40" rx="12" fill="#E8F0FF"/>
  <text x="92" y="214" fill="#1B365D" font-family="Inter" font-size="14">Статус: Все</text>
  <rect x="288" y="188" width="200" height="40" rx="12" fill="#E8F0FF"/>
  <text x="308" y="214" fill="#1B365D" font-family="Inter" font-size="14">Период: 7 дней</text>
  <rect x="504" y="188" width="240" height="40" rx="12" fill="#E8F0FF"/>
  <text x="524" y="214" fill="#1B365D" font-family="Inter" font-size="14">Агент: Аналитик тендеров</text>
  <rect x="768" y="188" width="256" height="40" rx="12" fill="#1B365D"/>
  <text x="816" y="214" fill="white" font-family="Inter" font-size="14" font-weight="600">➕ Новый запуск</text>
  <rect x="40" y="260" width="1360" height="256" rx="24" fill="white" stroke="#D7DEED" stroke-width="2"/>
  <text x="72" y="308" fill="#2E3A59" font-family="Inter" font-size="20" font-weight="600">Сводка производительности</text>
  <rect x="72" y="332" width="296" height="160" rx="20" fill="#F8FAFF" stroke="#D7DEED" stroke-width="1.5"/>
  <text x="96" y="372" fill="#5B6B92" font-family="Inter" font-size="14">Успешно завершено</text>
  <text x="96" y="412" fill="#1B365D" font-family="Inter" font-size="32" font-weight="600">82%</text>
  <rect x="392" y="332" width="296" height="160" rx="20" fill="#F8FAFF" stroke="#D7DEED" stroke-width="1.5"/>
  <text x="416" y="372" fill="#5B6B92" font-family="Inter" font-size="14">Среднее время ответа</text>
  <text x="416" y="412" fill="#1B365D" font-family="Inter" font-size="32" font-weight="600">3.2 мин</text>
  <rect x="712" y="332" width="296" height="160" rx="20" fill="#F8FAFF" stroke="#D7DEED" stroke-width="1.5"/>
  <text x="736" y="372" fill="#5B6B92" font-family="Inter" font-size="14">Эскалации</text>
  <text x="736" y="412" fill="#1B365D" font-family="Inter" font-size="32" font-weight="600">5</text>
  <rect x="1032" y="332" width="296" height="160" rx="20" fill="#F8FAFF" stroke="#D7DEED" stroke-width="1.5"/>
  <text x="1056" y="372" fill="#5B6B92" font-family="Inter" font-size="14">Оценка качества</text>
  <text x="1056" y="412" fill="#1B365D" font-family="Inter" font-size="32" font-weight="600">4.6/5</text>
  <rect x="40" y="540" width="1360" height="444" rx="24" fill="white" stroke="#D7DEED" stroke-width="2"/>
  <text x="72" y="588" fill="#2E3A59" font-family="Inter" font-size="20" font-weight="600">Последние запуски</text>
  <text x="72" y="624" fill="#5B6B92" font-family="Inter" font-size="14">Сводная таблица последних действий агента и статусов.</text>
  <rect x="72" y="648" width="1296" height="320" rx="16" fill="#F8FAFF" stroke="#D7DEED" stroke-width="1.5"/>
  <text x="104" y="684" fill="#7A88AE" font-family="Inter" font-size="14">ID</text>
  <text x="184" y="684" fill="#7A88AE" font-family="Inter" font-size="14">Дата</text>
  <text x="320" y="684" fill="#7A88AE" font-family="Inter" font-size="14">Источник</text>
  <text x="520" y="684" fill="#7A88AE" font-family="Inter" font-size="14">Результат</text>
  <text x="720" y="684" fill="#7A88AE" font-family="Inter" font-size="14">Сводка</text>
  <text x="1120" y="684" fill="#7A88AE" font-family="Inter" font-size="14">Действия</text>
  <text x="104" y="732" fill="#2E3A59" font-family="Inter" font-size="14">#3821</text>
  <text x="184" y="732" fill="#2E3A59" font-family="Inter" font-size="14">15.10 09:12</text>
  <text x="320" y="732" fill="#2E3A59" font-family="Inter" font-size="14">Email</text>
  <text x="520" y="732" fill="#1B865D" font-family="Inter" font-size="14" font-weight="600">Успешно</text>
  <text x="720" y="732" fill="#5B6B92" font-family="Inter" font-size="14">Сформировано КП, отправлено клиенту.</text>
  <text x="1120" y="732" fill="#1B365D" font-family="Inter" font-size="14">Подробнее ▸</text>
  <text x="104" y="784" fill="#2E3A59" font-family="Inter" font-size="14">#3818</text>
  <text x="184" y="784" fill="#2E3A59" font-family="Inter" font-size="14">14.10 17:48</text>
  <text x="320" y="784" fill="#2E3A59" font-family="Inter" font-size="14">Портал</text>
  <text x="520" y="784" fill="#C75146" font-family="Inter" font-size="14" font-weight="600">Ошибки</text>
  <text x="720" y="784" fill="#C75146" font-family="Inter" font-size="14">Не удалось получить прайс от подрядчика.</text>
  <text x="1120" y="784" fill="#1B365D" font-family="Inter" font-size="14">Подробнее ▸</text>
  <text x="104" y="836" fill="#2E3A59" font-family="Inter" font-size="14">#3814</text>
  <text x="184" y="836" fill="#2E3A59" font-family="Inter" font-size="14">14.10 10:21</text>
  <text x="320" y="836" fill="#2E3A59" font-family="Inter" font-size="14">API</text>
  <text x="520" y="836" fill="#1B865D" font-family="Inter" font-size="14" font-weight="600">Успешно</text>
  <text x="720" y="836" fill="#5B6B92" font-family="Inter" font-size="14">Создан черновик сметы для проекта «Мост-21».</text>
  <text x="1120" y="836" fill="#1B365D" font-family="Inter" font-size="14">Подробнее ▸</text>
</svg>
